<?xml version="1.0" standalone="no"?>
<!DOCTYPE svg PUBLIC "-//W3C//DTD SVG 20010904//EN"
 "http://www.w3.org/TR/2001/REC-SVG-20010904/DTD/svg10.dtd">
<svg version="1.0" xmlns="http://www.w3.org/2000/svg"
 width="1024.000000pt" height="1024.000000pt" viewBox="0 0 1024.000000 1024.000000"
 preserveAspectRatio="xMidYMid meet">

<g transform="translate(0.000000,1024.000000) scale(0.100000,-0.100000)"
fill="#000000" stroke="none">
<path d="M4495 8993 c-119 -7 -280 -26 -415 -49 -171 -29 -398 -82 -406 -95
-3 -5 -14 -9 -25 -9 -28 0 -312 -96 -355 -120 -19 -11 -40 -20 -46 -20 -14 0
-417 -198 -438 -216 -8 -6 -31 -20 -50 -31 -44 -23 -220 -142 -280 -188 -25
-19 -57 -43 -72 -53 -52 -35 -132 -109 -331 -309 -200 -199 -274 -279 -309
-331 -10 -15 -34 -47 -53 -72 -58 -75 -208 -302 -238 -360 -16 -30 -34 -62
-41 -70 -17 -20 -156 -304 -156 -318 0 -6 -8 -26 -19 -44 -10 -19 -28 -63 -40
-98 -12 -36 -26 -73 -31 -82 -6 -10 -10 -26 -10 -36 0 -10 -4 -22 -9 -28 -26
-27 -131 -420 -131 -491 0 -22 -4 -43 -9 -49 -5 -5 -17 -63 -27 -129 -16 -102
-19 -179 -19 -505 1 -364 8 -507 35 -661 21 -126 43 -224 51 -233 5 -6 9 -25
9 -42 0 -18 4 -35 9 -38 4 -3 11 -25 13 -49 3 -23 12 -58 21 -77 8 -19 17 -52
20 -72 3 -20 12 -52 20 -70 9 -18 25 -62 37 -98 12 -36 26 -69 31 -74 5 -6 9
-16 9 -23 0 -8 9 -33 20 -55 11 -23 20 -46 20 -51 0 -13 140 -298 156 -317 7
-8 25 -40 41 -70 36 -71 176 -282 222 -337 20 -23 54 -66 76 -94 57 -73 367
-389 382 -389 7 0 28 9 48 20 20 11 41 20 47 20 6 0 65 26 132 59 67 32 137
65 156 72 19 7 77 35 129 61 52 26 99 48 104 48 6 0 73 31 151 69 78 38 157
75 176 82 19 7 68 30 109 51 41 21 78 38 84 38 5 0 73 31 151 69 78 38 157 75
176 82 19 7 77 35 129 61 52 26 99 48 104 48 5 0 64 26 131 59 67 32 137 65
156 72 19 7 68 30 109 51 41 21 78 38 84 38 5 0 57 23 116 51 123 59 190 90
246 115 58 25 171 139 203 204 l27 55 3 411 3 411 -26 -4 c-14 -3 -28 -9 -31
-14 -3 -5 -12 -9 -20 -9 -8 0 -34 -9 -56 -20 -23 -11 -50 -20 -59 -20 -10 0
-21 -4 -24 -10 -3 -5 -17 -10 -31 -10 -14 0 -44 -9 -66 -20 -23 -11 -50 -20
-59 -20 -10 0 -21 -4 -24 -10 -3 -5 -17 -10 -31 -10 -14 0 -33 -4 -42 -9 -9
-4 -32 -11 -49 -14 l-33 -6 -2 1102 -3 1102 -215 0 -215 0 -3 -1079 c-1 -748
-5 -1083 -13 -1092 -11 -13 -165 -91 -229 -115 -19 -7 -95 -44 -169 -81 -74
-38 -139 -68 -144 -68 -5 0 -80 -35 -166 -77 -86 -43 -177 -85 -203 -94 l-48
-16 -2 1311 -3 1311 -220 0 -220 0 -3 -1645 c-1 -905 0 -1651 3 -1658 3 -9 14
-7 40 8 20 11 41 20 47 20 6 0 65 26 132 59 67 32 137 65 156 72 19 7 68 30
109 51 41 21 79 38 85 38 6 0 47 18 91 40 44 22 84 40 89 40 4 0 54 22 110 49
55 27 117 54 136 62 19 7 50 21 68 31 18 10 37 18 43 18 6 0 48 17 92 39 45
21 98 45 117 52 19 7 59 26 89 41 29 15 58 28 65 28 6 0 38 14 71 30 33 17 64
30 70 30 5 0 46 18 90 40 44 22 84 40 90 40 5 0 37 14 70 30 33 17 63 30 68
30 4 0 36 13 70 29 72 33 143 61 157 61 7 0 9 -72 8 -202 l-3 -202 -104 -53
c-57 -29 -108 -53 -114 -53 -5 0 -55 -22 -111 -49 -55 -27 -117 -55 -136 -62
-19 -7 -59 -26 -89 -41 -29 -15 -58 -28 -63 -28 -6 0 -56 -22 -112 -49 -55
-27 -117 -55 -136 -62 -19 -7 -68 -30 -109 -51 -41 -21 -79 -38 -85 -38 -6 0
-56 -23 -111 -50 -55 -28 -104 -50 -109 -50 -5 0 -63 -26 -130 -59 -67 -32
-137 -65 -156 -72 -19 -7 -59 -26 -89 -41 -29 -15 -58 -28 -63 -28 -6 0 -65
-26 -132 -59 -67 -32 -137 -65 -156 -72 -19 -7 -59 -26 -89 -41 -29 -15 -58
-28 -63 -28 -6 0 -56 -22 -112 -49 -55 -27 -118 -55 -139 -62 l-38 -13 -87 91
c-48 50 -102 109 -120 132 -45 55 -260 378 -279 421 -9 19 -22 42 -29 50 -18
22 -84 150 -84 163 0 7 -14 39 -30 72 -17 33 -30 63 -30 68 0 4 -9 27 -20 49
-11 23 -20 45 -20 50 0 5 -9 27 -19 51 -11 23 -21 53 -24 67 -10 50 -39 145
-47 155 -4 6 -10 28 -13 50 -4 22 -16 78 -27 125 -30 121 -40 174 -50 270 -5
47 -14 128 -19 180 -13 119 -13 512 -1 645 6 55 13 140 17 188 3 48 10 90 15
93 4 3 8 23 8 45 0 21 4 47 9 57 5 9 24 76 41 147 34 137 98 341 131 412 10
24 19 46 19 51 0 4 13 34 30 67 16 33 30 65 30 72 0 12 44 98 62 120 6 7 28
47 50 90 22 43 46 85 54 94 8 8 14 19 14 23 0 9 118 185 165 246 19 25 43 57
53 71 69 104 447 482 551 551 14 10 46 34 71 53 61 47 297 205 306 205 4 0 15
7 24 15 18 16 348 185 362 185 5 0 28 9 50 20 23 11 46 20 50 20 5 0 28 9 50
20 23 11 50 20 59 20 10 0 20 4 23 9 3 4 21 11 40 14 19 3 50 12 68 20 42 18
314 86 393 98 33 5 101 14 150 19 50 6 122 15 160 21 39 6 153 14 255 18 102
3 196 11 210 18 58 26 100 95 100 163 0 72 -43 138 -109 166 -32 13 -200 17
-356 7z"/>
<path d="M7495 8229 c-27 -15 -57 -28 -65 -28 -8 -1 -42 -15 -75 -31 -33 -17
-64 -30 -70 -30 -5 0 -37 -14 -70 -30 -33 -17 -65 -30 -71 -30 -7 0 -38 -13
-69 -30 -31 -16 -62 -30 -69 -30 -6 0 -38 -14 -71 -30 -33 -17 -64 -30 -70
-30 -5 0 -37 -14 -70 -30 -33 -17 -64 -30 -70 -30 -5 0 -37 -14 -70 -30 -33
-17 -64 -30 -70 -30 -5 0 -37 -14 -70 -30 -33 -17 -64 -30 -70 -30 -5 0 -37
-14 -70 -30 -33 -17 -64 -30 -70 -30 -5 0 -37 -14 -70 -30 -33 -17 -65 -30
-71 -30 -7 0 -38 -13 -69 -30 -31 -16 -62 -30 -69 -30 -6 0 -38 -14 -71 -30
-33 -17 -64 -30 -70 -30 -5 0 -37 -14 -70 -30 -33 -17 -64 -30 -70 -30 -5 0
-37 -14 -70 -30 -33 -17 -64 -30 -70 -30 -5 0 -37 -14 -70 -30 -33 -17 -64
-30 -70 -30 -5 0 -37 -14 -70 -30 -33 -17 -64 -30 -70 -30 -5 0 -37 -14 -70
-30 -33 -17 -63 -30 -67 -30 -53 0 -206 -124 -234 -189 -11 -27 -14 -101 -14
-376 0 -379 -1 -371 67 -436 62 -60 87 -63 278 -39 92 12 170 18 174 15 3 -4
8 -486 10 -1071 l3 -1064 23 0 c13 0 26 4 29 9 3 4 25 11 49 13 25 3 59 13 77
22 18 9 42 16 54 16 11 0 52 9 91 21 38 12 81 24 95 28 l25 8 3 473 c2 423 4
476 19 492 9 10 24 18 34 18 10 0 34 9 54 20 20 11 40 20 46 20 5 0 29 9 51
20 23 11 46 20 50 20 5 0 28 9 50 20 23 11 46 20 50 20 5 0 28 9 50 20 23 11
47 20 52 20 6 0 38 14 71 30 33 17 63 30 68 30 4 0 27 9 49 20 23 11 46 20 50
20 5 0 28 9 50 20 23 11 47 20 52 20 6 0 38 14 71 30 33 17 63 30 68 30 4 0
27 9 49 20 23 11 46 20 51 20 4 0 36 13 70 29 34 16 78 34 97 41 19 7 52 29
73 49 l37 35 0 783 c0 431 -3 783 -7 783 -5 0 -35 -14 -68 -30 -33 -17 -64
-30 -70 -30 -5 0 -37 -14 -70 -30 -33 -17 -64 -30 -70 -30 -5 0 -37 -14 -70
-30 -33 -17 -64 -30 -70 -30 -5 0 -37 -14 -70 -30 -33 -17 -64 -30 -70 -30 -5
0 -37 -14 -70 -30 -33 -17 -64 -30 -70 -30 -5 0 -37 -14 -70 -30 -33 -17 -64
-30 -70 -30 -5 0 -37 -14 -70 -30 -33 -17 -64 -30 -70 -30 -5 0 -37 -14 -70
-30 -33 -17 -64 -30 -70 -30 -5 0 -37 -14 -70 -30 -33 -17 -64 -30 -70 -30 -5
0 -37 -14 -70 -30 -33 -17 -64 -30 -70 -30 -5 0 -37 -14 -70 -30 -33 -17 -65
-30 -72 -30 -7 0 -28 -9 -48 -20 -20 -11 -41 -20 -48 -20 -7 0 -39 -14 -72
-30 -33 -17 -63 -30 -67 -30 -5 0 -27 -9 -51 -20 -23 -10 -55 -20 -72 -22
l-30 -3 0 198 0 199 30 24 c17 13 37 24 45 24 8 0 42 14 75 30 33 17 64 30 70
30 5 0 37 14 70 30 33 17 63 30 68 30 4 0 27 9 49 20 23 11 47 20 52 20 6 0
38 14 71 30 33 17 64 30 70 30 5 0 37 14 70 30 33 17 64 30 70 30 5 0 37 14
70 30 33 17 64 30 70 30 5 0 37 14 70 30 33 17 63 30 68 30 4 0 27 9 49 20 23
11 47 20 52 20 6 0 47 18 91 40 44 22 84 40 90 40 5 0 37 14 70 30 33 17 64
30 70 30 5 0 37 14 70 30 33 17 64 30 70 30 5 0 37 14 70 30 33 17 64 30 70
30 5 0 37 14 70 30 33 17 64 30 70 30 5 0 37 14 70 30 33 17 63 30 68 30 4 0
36 13 70 29 82 38 105 43 136 26 29 -15 174 -165 236 -244 22 -28 55 -69 73
-90 50 -60 252 -351 252 -365 0 -3 14 -25 30 -49 17 -25 30 -48 30 -53 0 -4 6
-15 14 -23 18 -20 126 -229 126 -245 0 -6 14 -38 30 -71 17 -33 30 -63 30 -68
0 -4 9 -27 20 -49 11 -23 20 -50 20 -59 0 -10 4 -20 9 -23 4 -3 11 -23 15 -43
3 -21 13 -51 21 -67 8 -15 15 -37 15 -47 0 -10 5 -21 10 -24 6 -3 10 -19 10
-34 0 -15 9 -54 20 -87 11 -32 20 -70 20 -85 0 -14 4 -29 9 -35 5 -5 12 -27
15 -49 3 -22 10 -69 16 -105 25 -151 31 -216 41 -412 12 -215 2 -540 -21 -698
-6 -41 -13 -97 -16 -125 -3 -27 -10 -54 -15 -60 -5 -5 -9 -28 -9 -51 0 -24 -4
-46 -10 -49 -5 -3 -10 -21 -10 -40 0 -19 -4 -37 -10 -40 -5 -3 -10 -21 -10
-40 0 -19 -4 -37 -10 -40 -5 -3 -10 -16 -10 -29 0 -12 -4 -26 -9 -31 -9 -9
-33 -85 -48 -153 -3 -12 -9 -25 -14 -28 -5 -3 -9 -13 -9 -23 0 -9 -9 -36 -20
-59 -11 -22 -20 -45 -20 -49 0 -5 -13 -35 -30 -68 -16 -33 -30 -65 -30 -71 0
-14 -106 -223 -124 -244 -6 -8 -18 -28 -26 -45 -21 -45 -239 -374 -279 -422
-20 -24 -58 -70 -86 -104 -94 -114 -438 -451 -513 -501 -15 -10 -47 -34 -72
-53 -61 -47 -297 -205 -306 -205 -4 0 -15 -7 -24 -15 -19 -17 -388 -205 -404
-205 -6 0 -38 -14 -71 -30 -33 -17 -67 -30 -75 -30 -9 0 -20 -4 -26 -8 -8 -8
-55 -23 -214 -71 -36 -10 -114 -31 -175 -45 -60 -15 -128 -31 -150 -37 -98
-27 -283 -48 -485 -57 -91 -5 -176 -13 -190 -19 -37 -16 -96 -83 -110 -124
-21 -60 -7 -99 59 -163 l60 -56 119 0 c134 0 327 16 357 30 11 5 45 11 75 14
107 10 155 18 165 27 5 5 26 9 48 9 44 0 197 37 212 51 5 5 24 9 41 9 18 0 36
5 39 10 3 6 15 10 27 10 24 0 259 78 273 91 5 5 16 9 25 9 8 0 42 14 75 30 33
17 64 30 69 30 15 0 297 142 342 172 23 15 45 28 50 28 4 0 15 6 23 14 9 8 32
22 51 33 44 23 220 142 280 188 25 19 57 43 71 53 60 40 126 101 383 358 257
257 318 323 358 383 10 14 34 46 53 71 45 58 124 175 148 218 10 18 32 54 50
80 34 48 257 490 257 508 0 6 9 29 20 52 11 22 20 47 20 55 0 7 4 17 9 22 14
16 91 256 91 286 0 15 5 31 10 34 6 3 10 21 10 39 0 17 4 36 10 42 10 10 38
128 50 219 5 33 15 92 24 130 30 145 38 296 34 646 -4 261 -9 371 -22 454 -10
61 -22 114 -27 119 -5 6 -9 30 -9 55 0 26 -7 73 -16 106 -8 33 -18 74 -20 90
-3 17 -9 39 -14 50 -5 11 -11 37 -14 58 -2 21 -12 52 -20 69 -9 17 -16 38 -16
46 0 15 -15 69 -31 107 -4 11 -22 63 -39 115 -18 52 -36 99 -41 105 -5 5 -9
15 -9 23 0 8 -22 60 -49 116 -27 55 -54 117 -61 136 -7 19 -19 42 -26 50 -7 8
-30 49 -51 90 -21 41 -51 94 -66 117 -15 24 -27 44 -27 47 0 6 -161 247 -191
286 -13 17 -42 53 -64 80 -22 28 -58 73 -80 101 -46 59 -442 466 -465 478 -9
5 -34 -2 -65 -20z m-715 -1907 l0 -338 -37 -16 c-21 -9 -128 -53 -238 -98
-367 -150 -420 -172 -450 -185 -16 -8 -54 -23 -82 -34 l-53 -19 0 332 0 332
58 26 c60 27 169 75 289 127 39 17 74 31 76 31 3 0 35 14 70 30 36 17 68 30
70 30 3 0 35 14 70 30 36 17 68 30 71 30 2 0 33 13 68 30 35 16 69 30 76 30 9
0 12 -74 12 -338z"/>
</g>
</svg>
